<svg width="22" height="23" viewBox="0 0 22 23" fill="none" xmlns="http://www.w3.org/2000/svg">
<rect x="0.25" y="0.771484" width="21.5" height="21.5" stroke="black" stroke-width="0.5"/>
<path d="M11 6.02132C11 6.50755 11.1932 6.97387 11.537 7.31768C11.8808 7.6615 12.3471 7.85465 12.8334 7.85465C13.3196 7.85465 13.7859 7.6615 14.1297 7.31768C14.4735 6.97387 14.6667 6.50755 14.6667 6.02132M11 6.02132C11 5.53509 11.1932 5.06878 11.537 4.72496C11.8808 4.38114 12.3471 4.18799 12.8334 4.18799C13.3196 4.18799 13.7859 4.38114 14.1297 4.72496C14.4735 5.06878 14.6667 5.53509 14.6667 6.02132M11 6.02132H3.66669M14.6667 6.02132H18.3334M5.50002 11.5213C5.50002 12.0076 5.69317 12.4739 6.03699 12.8177C6.38081 13.1615 6.84712 13.3547 7.33335 13.3547C7.81958 13.3547 8.2859 13.1615 8.62972 12.8177C8.97353 12.4739 9.16669 12.0076 9.16669 11.5213M5.50002 11.5213C5.50002 11.0351 5.69317 10.5688 6.03699 10.225C6.38081 9.88114 6.84712 9.68799 7.33335 9.68799C7.81958 9.68799 8.2859 9.88114 8.62972 10.225C8.97353 10.5688 9.16669 11.0351 9.16669 11.5213M5.50002 11.5213H3.66669M9.16669 11.5213H18.3334M13.75 17.0213C13.75 17.5076 13.9432 17.9739 14.287 18.3177C14.6308 18.6615 15.0971 18.8547 15.5834 18.8547C16.0696 18.8547 16.5359 18.6615 16.8797 18.3177C17.2235 17.9739 17.4167 17.5076 17.4167 17.0213M13.75 17.0213C13.75 16.5351 13.9432 16.0688 14.287 15.725C14.6308 15.3811 15.0971 15.188 15.5834 15.188C16.0696 15.188 16.5359 15.3811 16.8797 15.725C17.2235 16.0688 17.4167 16.5351 17.4167 17.0213M13.75 17.0213H3.66669M17.4167 17.0213H18.3334" stroke="white" stroke-opacity="0.8" stroke-linecap="round" stroke-linejoin="round"/>
</svg>
