<svg width="22" height="22" viewBox="0 0 22 22" fill="none" xmlns="http://www.w3.org/2000/svg">
<path d="M11 5.50008C11 5.98631 11.1932 6.45263 11.537 6.79644C11.8808 7.14026 12.3471 7.33341 12.8334 7.33341C13.3196 7.33341 13.7859 7.14026 14.1297 6.79644C14.4735 6.45263 14.6667 5.98631 14.6667 5.50008M11 5.50008C11 5.01385 11.1932 4.54754 11.537 4.20372C11.8808 3.8599 12.3471 3.66675 12.8334 3.66675C13.3196 3.66675 13.7859 3.8599 14.1297 4.20372C14.4735 4.54754 14.6667 5.01385 14.6667 5.50008M11 5.50008H3.66669M14.6667 5.50008H18.3334M5.50002 11.0001C5.50002 11.4863 5.69317 11.9526 6.03699 12.2964C6.38081 12.6403 6.84712 12.8334 7.33335 12.8334C7.81958 12.8334 8.2859 12.6403 8.62972 12.2964C8.97353 11.9526 9.16669 11.4863 9.16669 11.0001M5.50002 11.0001C5.50002 10.5139 5.69317 10.0475 6.03699 9.70372C6.38081 9.3599 6.84712 9.16675 7.33335 9.16675C7.81958 9.16675 8.2859 9.3599 8.62972 9.70372C8.97353 10.0475 9.16669 10.5139 9.16669 11.0001M5.50002 11.0001H3.66669M9.16669 11.0001H18.3334M13.75 16.5001C13.75 16.9863 13.9432 17.4526 14.287 17.7964C14.6308 18.1403 15.0971 18.3334 15.5834 18.3334C16.0696 18.3334 16.5359 18.1403 16.8797 17.7964C17.2235 17.4526 17.4167 16.9863 17.4167 16.5001M13.75 16.5001C13.75 16.0139 13.9432 15.5475 14.287 15.2037C14.6308 14.8599 15.0971 14.6667 15.5834 14.6667C16.0696 14.6667 16.5359 14.8599 16.8797 15.2037C17.2235 15.5475 17.4167 16.0139 17.4167 16.5001M13.75 16.5001H3.66669M17.4167 16.5001H18.3334" stroke="black" stroke-linecap="round" stroke-linejoin="round"/>
</svg>
