<svg width="25" height="25" viewBox="0 0 25 25" fill="none" xmlns="http://www.w3.org/2000/svg">
<path d="M5.08984 15.25H4.08984C3.55941 15.25 3.0507 15.0393 2.67563 14.6642C2.30056 14.2891 2.08984 13.7804 2.08984 13.25V4.25C2.08984 3.71957 2.30056 3.21086 2.67563 2.83579C3.0507 2.46071 3.55941 2.25 4.08984 2.25H13.0898C13.6203 2.25 14.129 2.46071 14.5041 2.83579C14.8791 3.21086 15.0898 3.71957 15.0898 4.25V5.25M11.0898 9.25H20.0898C21.1944 9.25 22.0898 10.1454 22.0898 11.25V20.25C22.0898 21.3546 21.1944 22.25 20.0898 22.25H11.0898C9.98527 22.25 9.08984 21.3546 9.08984 20.25V11.25C9.08984 10.1454 9.98527 9.25 11.0898 9.25Z" stroke="#767676" stroke-width="2" stroke-linecap="round" stroke-linejoin="round"/>
</svg>
