<svg width="44" height="44" viewBox="0 0 44 44" fill="none" xmlns="http://www.w3.org/2000/svg">
<g clip-path="url(#clip0_2905_3521)">
<g clip-path="url(#clip1_2905_3521)">
<path d="M37.7004 15.7001C38.6945 15.7001 39.5004 14.8942 39.5004 13.9001C39.5004 12.906 38.6945 12.1001 37.7004 12.1001C36.7063 12.1001 35.9004 12.906 35.9004 13.9001C35.9004 14.8942 36.7063 15.7001 37.7004 15.7001Z" stroke="#767676" stroke-width="1.8" stroke-linecap="round" stroke-linejoin="round"/>
<path d="M37.7002 12.1005V10.7505" stroke="#767676" stroke-width="1.8" stroke-linecap="round" stroke-linejoin="round"/>
<path d="M36.1406 13.0007L34.9717 12.3257" stroke="#767676" stroke-width="1.8" stroke-linecap="round" stroke-linejoin="round"/>
<path d="M36.1406 14.8003L34.9717 15.4753" stroke="#767676" stroke-width="1.8" stroke-linecap="round" stroke-linejoin="round"/>
<path d="M37.7002 15.7007V17.0507" stroke="#767676" stroke-width="1.8" stroke-linecap="round" stroke-linejoin="round"/>
<path d="M39.2598 14.8003L40.4286 15.4753" stroke="#767676" stroke-width="1.8" stroke-linecap="round" stroke-linejoin="round"/>
<path d="M39.2598 13.0007L40.4286 12.3257" stroke="#767676" stroke-width="1.8" stroke-linecap="round" stroke-linejoin="round"/>
<path d="M29.6006 25.6001C32.0859 25.6001 34.1006 23.5854 34.1006 21.1001C34.1006 18.6148 32.0859 16.6001 29.6006 16.6001C27.1153 16.6001 25.1006 18.6148 25.1006 21.1001C25.1006 23.5854 27.1153 25.6001 29.6006 25.6001Z" stroke="#767676" stroke-width="1.8" stroke-linecap="round" stroke-linejoin="round"/>
<path d="M22.3779 30.0294C23.0551 28.6956 24.0883 27.5754 25.3632 26.7929C26.638 26.0104 28.1046 25.5962 29.6004 25.5962C31.0963 25.5962 32.5629 26.0104 33.8377 26.7929C35.1125 27.5754 36.1458 28.6956 36.8229 30.0294" stroke="#767676" stroke-width="1.8" stroke-linecap="round" stroke-linejoin="round"/>
<path d="M40.2507 20.2007C40.6304 22.4567 40.2833 24.7751 39.2595 26.8209C38.2356 28.8668 36.5881 30.5343 34.5548 31.5828C32.5214 32.6312 30.2075 33.0063 27.947 32.6539C25.6866 32.3015 23.5967 31.2398 21.979 29.6221C20.3613 28.0044 19.2996 25.9145 18.9472 23.654C18.5948 21.3936 18.9698 19.0797 20.0183 17.0463C21.0667 15.0129 22.7343 13.3654 24.7801 12.3416C26.826 11.3178 29.1443 10.9707 31.4003 11.3504" stroke="#767676" stroke-width="1.8" stroke-linecap="round" stroke-linejoin="round"/>
</g>
</g>
<defs>
<clipPath id="clip0_2905_3521">
<rect width="44" height="44" rx="22" fill="white"/>
</clipPath>
<clipPath id="clip1_2905_3521">
<rect width="28.8" height="28.8" fill="white" transform="translate(15.2002 7.6001)"/>
</clipPath>
</defs>
</svg>
