<svg width="28" height="28" viewBox="0 0 28 28" fill="none" xmlns="http://www.w3.org/2000/svg">
<path d="M18.6666 18.6667L14 14M14 14L9.33329 18.6667M14 14V24.5M23.7883 21.455C24.9262 20.8347 25.8251 19.853 26.3431 18.6651C26.8612 17.4771 26.9689 16.1504 26.6492 14.8945C26.3295 13.6385 25.6007 12.5248 24.5777 11.729C23.5548 10.9333 22.296 10.5009 21 10.5H19.53C19.1768 9.13412 18.5186 7.86606 17.6049 6.79116C16.6911 5.71626 15.5456 4.86249 14.2544 4.29404C12.9632 3.72559 11.5599 3.45725 10.1501 3.5092C8.74025 3.56114 7.36053 3.93202 6.11466 4.59394C4.86879 5.25587 3.78918 6.19162 2.95701 7.33085C2.12484 8.47007 1.56176 9.78313 1.3101 11.1713C1.05843 12.5595 1.12474 13.9866 1.50404 15.3455C1.88333 16.7043 2.56574 17.9595 3.49995 19.0167" stroke="#00B877" stroke-width="2" stroke-linecap="round" stroke-linejoin="round"/>
</svg>
