<svg width="26" height="25" viewBox="0 0 26 25" fill="none" xmlns="http://www.w3.org/2000/svg">
<path d="M12.9999 3.02148C13.567 3.02148 14.0272 3.48166 14.0272 4.04883V11.0215H21.243C21.7952 11.0217 22.243 11.4693 22.243 12.0215C22.243 12.5737 21.7952 13.0213 21.243 13.0215H14.0272V19.9941C14.0272 20.5613 13.567 21.0215 12.9999 21.0215C12.4329 21.0213 11.9735 20.5612 11.9735 19.9941V13.0215H4.75769C4.20541 13.0215 3.75769 12.5738 3.75769 12.0215C3.75769 11.4692 4.20541 11.0215 4.75769 11.0215H11.9735V4.04883C11.9735 3.48179 12.4329 3.02169 12.9999 3.02148Z" fill="white" fill-opacity="0.8"/>
</svg>
