<svg width="21" height="21" viewBox="0 0 21 21" fill="none" xmlns="http://www.w3.org/2000/svg">
<path d="M10.1496 8.48397V11.8173M10.1496 14.3173H10.1581M8.76545 3.97663L1.90933 15.255C1.76799 15.4961 1.6932 15.7695 1.69239 16.048C1.69158 16.3265 1.76478 16.6003 1.90472 16.8422C2.04465 17.0842 2.24644 17.2858 2.49001 17.4271C2.73358 17.5684 3.01045 17.6443 3.29307 17.6475H17.007C17.2895 17.6442 17.5662 17.5683 17.8097 17.427C18.0531 17.2858 18.2548 17.0843 18.3948 16.8424C18.5347 16.6006 18.6079 16.3269 18.6072 16.0486C18.6065 15.7702 18.5319 15.4969 18.3908 15.2558L11.5346 3.97579C11.3904 3.74121 11.1872 3.54724 10.9446 3.41262C10.7021 3.278 10.4284 3.20728 10.15 3.20728C9.87166 3.20728 9.59799 3.278 9.35545 3.41262C9.11291 3.54724 8.9097 3.74121 8.76545 3.97579V3.97663Z" stroke="#8C9BAB" stroke-width="1.66667" stroke-linecap="round" stroke-linejoin="round"/>
</svg>
