<svg width="21" height="20" viewBox="0 0 21 20" fill="none" xmlns="http://www.w3.org/2000/svg">
<path d="M10.1496 7.49935V10.8327M10.1496 13.3327H10.1581M8.76545 2.99201L1.90933 14.2703C1.76799 14.5115 1.6932 14.7849 1.69239 15.0634C1.69158 15.3418 1.76478 15.6157 1.90472 15.8576C2.04465 16.0996 2.24644 16.3012 2.49001 16.4425C2.73358 16.5837 3.01045 16.6597 3.29307 16.6628H17.007C17.2895 16.6596 17.5662 16.5836 17.8097 16.4424C18.0531 16.3012 18.2548 16.0997 18.3948 15.8578C18.5347 15.616 18.6079 15.3423 18.6072 15.064C18.6065 14.7856 18.5319 14.5123 18.3908 14.2712L11.5346 2.99117C11.3904 2.75659 11.1872 2.56263 10.9446 2.428C10.7021 2.29338 10.4284 2.22266 10.15 2.22266C9.87166 2.22266 9.59799 2.29338 9.35545 2.428C9.11291 2.56263 8.9097 2.75659 8.76545 2.99117V2.99201Z" stroke="black" stroke-opacity="0.8" stroke-width="1.66667" stroke-linecap="round" stroke-linejoin="round"/>
</svg>
