<svg width="25" height="25" viewBox="0 0 25 25" fill="none" xmlns="http://www.w3.org/2000/svg">
<path d="M11.0898 4.62523H4.08984C3.55941 4.62523 3.0507 4.83594 2.67563 5.21101C2.30056 5.58609 2.08984 6.09479 2.08984 6.62523V20.6252C2.08984 21.1557 2.30056 21.6644 2.67563 22.0394C3.0507 22.4145 3.55941 22.6252 4.08984 22.6252H18.0898C18.6203 22.6252 19.129 22.4145 19.5041 22.0394C19.8791 21.6644 20.0898 21.1557 20.0898 20.6252V13.6252M18.5898 3.12523C18.9877 2.7274 19.5272 2.50391 20.0898 2.50391C20.6525 2.50391 21.192 2.7274 21.5898 3.12523C21.9877 3.52305 22.2112 4.06262 22.2112 4.62523C22.2112 5.18784 21.9877 5.7274 21.5898 6.12523L12.0898 15.6252L8.08984 16.6252L9.08984 12.6252L18.5898 3.12523Z" stroke="#767676" stroke-width="2" stroke-linecap="round" stroke-linejoin="round"/>
</svg>
