<svg width="45" height="41" viewBox="0 0 45 41" fill="none" xmlns="http://www.w3.org/2000/svg">
<path d="M38.2775 37.1664C37.6831 38.1997 37.9464 39.0331 36.9497 39.6075C35.9531 40.1831 34.8053 40.4997 33.6109 40.4997H10.5221C9.32878 40.4997 8.18212 40.1831 7.18435 39.6086C6.18658 39.0342 6.44991 38.1997 5.85547 37.1664L14.3776 27.1664H29.7553L38.2775 37.1664Z" fill="#1E88E5"/>
<path d="M25.9149 1.60967C27.1071 1.60745 28.2526 0.814117 29.2493 1.38967C30.246 1.96634 31.0937 2.80079 31.6904 3.83524L43.2348 23.8308C43.8314 24.8642 44.1314 26.0164 44.1325 27.1664C44.1336 28.3186 42.7248 29.4697 42.1259 30.5009L29.7626 27.162L22.0693 13.8364L25.9149 1.60967Z" fill="#FBC02D"/>
<path d="M44.1335 27.1664C44.1335 28.3219 43.8335 29.4664 43.2336 30.4997L39.1558 37.5553C38.5669 38.422 37.8114 39.1109 36.9447 39.6109L29.7559 27.1664H44.1335Z" fill="#E53935"/>
<path d="M2.00812 30.5009C1.41035 29.4697 0.00146484 28.3186 0.00146484 27.1675C0.00257595 26.0164 0.301463 24.8642 0.899237 23.8297L12.4436 3.83413C13.0403 2.80079 13.888 1.96523 14.8836 1.38967C15.8803 0.813007 17.0269 1.60634 18.2191 1.60856L22.0624 13.8408L14.3714 27.162L2.00812 30.5009Z" fill="#4CAF50"/>
<path d="M14.3777 27.1664L7.18884 39.6109C6.32218 39.1109 5.56663 38.422 4.97775 37.5553L0.899994 30.4997C0.299998 29.4664 0 28.3219 0 27.1664H14.3777Z" fill="#1565C0"/>
<path d="M29.2445 1.38871L22.0668 13.8332L14.8779 1.38871C15.7446 0.888707 16.7224 0.577595 17.7668 0.510928L25.9112 0.499817C27.1112 0.499817 28.2556 0.810929 29.2445 1.38871Z" fill="#2E7D32"/>
</svg>
