<svg width="28" height="28" viewBox="0 0 28 28" fill="none" xmlns="http://www.w3.org/2000/svg">
<path d="M18.6666 24.5V22.1667C18.6666 20.929 18.175 19.742 17.2998 18.8668C16.4246 17.9917 15.2376 17.5 14 17.5H5.83329C4.59562 17.5 3.40863 17.9917 2.53346 18.8668C1.65829 19.742 1.16663 20.929 1.16663 22.1667V24.5M23.3333 9.33333V16.3333M26.8333 12.8333H19.8333M14.5833 8.16667C14.5833 10.744 12.494 12.8333 9.91663 12.8333C7.3393 12.8333 5.24996 10.744 5.24996 8.16667C5.24996 5.58934 7.3393 3.5 9.91663 3.5C12.494 3.5 14.5833 5.58934 14.5833 8.16667Z" stroke="#00B877" stroke-width="2" stroke-linecap="round" stroke-linejoin="round"/>
</svg>
