<svg width="25" height="24" viewBox="0 0 25 24" fill="none" xmlns="http://www.w3.org/2000/svg">
<path d="M20.9329 9.76032C20.7367 9.79315 20.5616 9.90256 20.4461 10.0645C20.3306 10.2264 20.2841 10.4276 20.3169 10.6238C20.3931 11.0786 20.4313 11.5389 20.4313 12C20.4331 14.0196 19.6908 15.969 18.3463 17.4759C17.5098 16.2638 16.3337 15.3261 14.9657 14.7806C15.7005 14.2019 16.2367 13.4085 16.4997 12.5109C16.7628 11.6132 16.7395 10.6559 16.4332 9.77209C16.127 8.88826 15.5529 8.12184 14.7909 7.57941C14.0288 7.03697 13.1167 6.74549 12.1813 6.74549C11.2459 6.74549 10.3338 7.03697 9.57173 7.57941C8.80969 8.12184 8.23562 8.88826 7.92935 9.77209C7.62308 10.6559 7.59984 11.6132 7.86287 12.5109C8.12589 13.4085 8.6621 14.2019 9.39692 14.7806C8.02894 15.3261 6.85277 16.2638 6.0163 17.4759C4.96135 16.2872 4.27224 14.819 4.03184 13.2479C3.79144 11.6768 4.00998 10.0697 4.66118 8.61982C5.31238 7.16997 6.36852 5.93909 7.7026 5.07517C9.03668 4.21126 10.5919 3.75109 12.1813 3.75001C12.6424 3.74994 13.1028 3.78819 13.5575 3.86439C13.7528 3.8952 13.9524 3.84766 14.1128 3.73209C14.2732 3.61653 14.3815 3.4423 14.4142 3.24731C14.4468 3.05231 14.4011 2.85232 14.287 2.69083C14.173 2.52935 13.9997 2.41944 13.805 2.38501C11.7683 2.04237 9.67531 2.35589 7.82833 3.2803C5.98136 4.20471 4.47595 5.69218 3.52947 7.52795C2.58299 9.36371 2.24441 11.4528 2.56262 13.4935C2.88083 15.5342 3.83936 17.421 5.29981 18.8815C6.76027 20.342 8.64707 21.3005 10.6878 21.6187C12.7285 21.9369 14.8176 21.5983 16.6534 20.6518C18.4891 19.7054 19.9766 18.2 20.901 16.353C21.8254 14.506 22.1389 12.413 21.7963 10.3763C21.7635 10.1801 21.6541 10.005 21.4921 9.88948C21.3302 9.77397 21.129 9.72751 20.9329 9.76032ZM9.1813 11.25C9.1813 10.6567 9.35725 10.0766 9.68689 9.5833C10.0165 9.08995 10.4851 8.70543 11.0332 8.47837C11.5814 8.25131 12.1846 8.1919 12.7666 8.30765C13.3485 8.42341 13.8831 8.70913 14.3026 9.12869C14.7222 9.54825 15.0079 10.0828 15.1237 10.6647C15.2394 11.2467 15.18 11.8499 14.9529 12.3981C14.7259 12.9462 14.3414 13.4148 13.848 13.7444C13.3547 14.0741 12.7746 14.25 12.1813 14.25C11.3856 14.25 10.6226 13.9339 10.06 13.3713C9.49737 12.8087 9.1813 12.0457 9.1813 11.25ZM7.1263 18.5156C7.66886 17.6671 8.4163 16.9688 9.29973 16.4851C10.1831 16.0014 11.1741 15.7478 12.1813 15.7478C13.1885 15.7478 14.1795 16.0014 15.0629 16.4851C15.9463 16.9688 16.6937 17.6671 17.2363 18.5156C15.791 19.6397 14.0123 20.2499 12.1813 20.2499C10.3503 20.2499 8.57161 19.6397 7.1263 18.5156ZM22.4619 4.28064L19.4619 7.28064C19.3923 7.35037 19.3096 7.40569 19.2185 7.44343C19.1275 7.48117 19.0299 7.5006 18.9313 7.5006C18.8327 7.5006 18.7351 7.48117 18.6441 7.44343C18.553 7.40569 18.4703 7.35037 18.4007 7.28064L16.9007 5.78064C16.831 5.71095 16.7757 5.62823 16.738 5.53718C16.7003 5.44614 16.6809 5.34856 16.6809 5.25001C16.6809 5.15146 16.7003 5.05388 16.738 4.96284C16.7757 4.87179 16.831 4.78907 16.9007 4.71939C17.0414 4.57866 17.2323 4.49959 17.4313 4.49959C17.5298 4.49959 17.6274 4.519 17.7185 4.55672C17.8095 4.59443 17.8922 4.6497 17.9619 4.71939L18.9313 5.6897L21.4007 3.21939C21.4704 3.1497 21.5531 3.09443 21.6441 3.05672C21.7352 3.019 21.8328 2.99959 21.9313 2.99959C22.0298 2.99959 22.1274 3.019 22.2185 3.05672C22.3095 3.09443 22.3922 3.1497 22.4619 3.21939C22.5316 3.28907 22.5869 3.37179 22.6246 3.46284C22.6623 3.55388 22.6817 3.65146 22.6817 3.75001C22.6817 3.84856 22.6623 3.94614 22.6246 4.03718C22.5869 4.12823 22.5316 4.21095 22.4619 4.28064Z" fill="#767676"/>
</svg>
