<svg width="65" height="64" viewBox="0 0 65 64" fill="none" xmlns="http://www.w3.org/2000/svg">
<rect x="0.572266" width="64" height="64" rx="32" fill="#F04438"/>
<path d="M44.486 26.0288L38.0435 19.5863C37.6673 19.2123 37.1589 19.0017 36.6285 19H27.516C26.9856 19.0017 26.4772 19.2123 26.101 19.5863L19.6585 26.0288C19.2846 26.4049 19.074 26.9133 19.0723 27.4438V36.5562C19.074 37.0867 19.2846 37.5951 19.6585 37.9713L26.101 44.4137C26.4772 44.7877 26.9856 44.9983 27.516 45H36.6285C37.1589 44.9983 37.6673 44.7877 38.0435 44.4137L44.486 37.9713C44.8599 37.5951 45.0706 37.0867 45.0723 36.5562V27.4438C45.0706 26.9133 44.8599 26.4049 44.486 26.0288ZM31.0723 26C31.0723 25.7348 31.1776 25.4804 31.3652 25.2929C31.5527 25.1054 31.807 25 32.0723 25C32.3375 25 32.5918 25.1054 32.7794 25.2929C32.9669 25.4804 33.0723 25.7348 33.0723 26V33C33.0723 33.2652 32.9669 33.5196 32.7794 33.7071C32.5918 33.8946 32.3375 34 32.0723 34C31.807 34 31.5527 33.8946 31.3652 33.7071C31.1776 33.5196 31.0723 33.2652 31.0723 33V26ZM32.0723 39C31.7756 39 31.4856 38.912 31.2389 38.7472C30.9922 38.5824 30.8 38.3481 30.6864 38.074C30.5729 37.7999 30.5432 37.4983 30.6011 37.2074C30.659 36.9164 30.8018 36.6491 31.0116 36.4393C31.2214 36.2296 31.4887 36.0867 31.7796 36.0288C32.0706 35.9709 32.3722 36.0007 32.6463 36.1142C32.9204 36.2277 33.1546 36.42 33.3195 36.6666C33.4843 36.9133 33.5723 37.2033 33.5723 37.5C33.5723 37.8978 33.4142 38.2794 33.1329 38.5607C32.8516 38.842 32.4701 39 32.0723 39Z" fill="white"/>
</svg>
