<svg width="25" height="24" viewBox="0 0 25 24" fill="none" xmlns="http://www.w3.org/2000/svg">
<path d="M15.9313 5.25001C15.9313 5.0511 16.0103 4.86033 16.151 4.71968C16.2916 4.57903 16.4824 4.50001 16.6813 4.50001H18.1813V3.00001C18.1813 2.8011 18.2603 2.61033 18.401 2.46968C18.5416 2.32903 18.7324 2.25001 18.9313 2.25001C19.1302 2.25001 19.321 2.32903 19.4616 2.46968C19.6023 2.61033 19.6813 2.8011 19.6813 3.00001V4.50001H21.1813C21.3802 4.50001 21.571 4.57903 21.7116 4.71968C21.8523 4.86033 21.9313 5.0511 21.9313 5.25001C21.9313 5.44892 21.8523 5.63969 21.7116 5.78034C21.571 5.92099 21.3802 6.00001 21.1813 6.00001H19.6813V7.50001C19.6813 7.69892 19.6023 7.88969 19.4616 8.03034C19.321 8.17099 19.1302 8.25001 18.9313 8.25001C18.7324 8.25001 18.5416 8.17099 18.401 8.03034C18.2603 7.88969 18.1813 7.69892 18.1813 7.50001V6.00001H16.6813C16.4824 6.00001 16.2916 5.92099 16.151 5.78034C16.0103 5.63969 15.9313 5.44892 15.9313 5.25001ZM21.7963 10.3763C22.1389 12.413 21.8254 14.506 20.901 16.353C19.9766 18.2 18.4891 19.7054 16.6534 20.6518C14.8176 21.5983 12.7285 21.9369 10.6878 21.6187C8.64707 21.3005 6.76027 20.342 5.29981 18.8815C3.83936 17.421 2.88083 15.5342 2.56262 13.4935C2.24441 11.4528 2.58299 9.36371 3.52947 7.52795C4.47595 5.69218 5.98136 4.20471 7.82833 3.2803C9.67531 2.35589 11.7683 2.04237 13.805 2.38501C13.9997 2.41944 14.173 2.52935 14.287 2.69083C14.4011 2.85232 14.4468 3.05231 14.4142 3.24731C14.3815 3.4423 14.2732 3.61653 14.1128 3.73209C13.9524 3.84766 13.7528 3.8952 13.5575 3.86439C12.3745 3.66538 11.1624 3.72655 10.0054 4.04364C8.84848 4.36073 7.77452 4.92613 6.85829 5.70048C5.94206 6.47483 5.20557 7.43954 4.70008 8.52746C4.1946 9.61538 3.93225 10.8004 3.9313 12C3.92952 14.0196 4.67178 15.969 6.0163 17.4759C6.85277 16.2638 8.02894 15.3261 9.39692 14.7806C8.6621 14.2019 8.12589 13.4085 7.86287 12.5109C7.59984 11.6132 7.62308 10.6559 7.92935 9.77209C8.23562 8.88826 8.80969 8.12184 9.57173 7.57941C10.3338 7.03697 11.2459 6.74549 12.1813 6.74549C13.1167 6.74549 14.0288 7.03697 14.7909 7.57941C15.5529 8.12184 16.127 8.88826 16.4332 9.77209C16.7395 10.6559 16.7628 11.6132 16.4997 12.5109C16.2367 13.4085 15.7005 14.2019 14.9657 14.7806C16.3337 15.3261 17.5098 16.2638 18.3463 17.4759C19.6908 15.969 20.4331 14.0196 20.4313 12C20.4313 11.5389 20.3931 11.0786 20.3169 10.6238C20.2997 10.5262 20.3019 10.4262 20.3235 10.3295C20.3452 10.2328 20.3857 10.1414 20.4429 10.0604C20.5 9.97951 20.5727 9.91072 20.6566 9.85802C20.7405 9.80533 20.834 9.76978 20.9317 9.75343C21.0294 9.73709 21.1294 9.74026 21.2259 9.76278C21.3224 9.78529 21.4135 9.8267 21.4938 9.88461C21.5742 9.94252 21.6424 10.0158 21.6943 10.1002C21.7462 10.1846 21.7809 10.2784 21.7963 10.3763ZM12.1813 14.25C12.7746 14.25 13.3547 14.0741 13.848 13.7444C14.3414 13.4148 14.7259 12.9462 14.9529 12.3981C15.18 11.8499 15.2394 11.2467 15.1237 10.6647C15.0079 10.0828 14.7222 9.54825 14.3026 9.12869C13.8831 8.70913 13.3485 8.42341 12.7666 8.30765C12.1846 8.1919 11.5814 8.25131 11.0332 8.47837C10.4851 8.70543 10.0165 9.08995 9.68689 9.5833C9.35725 10.0766 9.1813 10.6567 9.1813 11.25C9.1813 12.0457 9.49737 12.8087 10.06 13.3713C10.6226 13.9339 11.3856 14.25 12.1813 14.25ZM12.1813 20.25C14.0126 20.2519 15.7919 19.6414 17.2363 18.5156C16.6937 17.6671 15.9463 16.9688 15.0629 16.4851C14.1795 16.0014 13.1885 15.7478 12.1813 15.7478C11.1741 15.7478 10.1831 16.0014 9.29973 16.4851C8.4163 16.9688 7.66886 17.6671 7.1263 18.5156C8.5707 19.6414 10.35 20.2519 12.1813 20.25Z" fill="#767676"/>
</svg>
