<svg width="65" height="64" viewBox="0 0 65 64" fill="none" xmlns="http://www.w3.org/2000/svg">
<path fill-rule="evenodd" clip-rule="evenodd" d="M45.7675 34.6663H56.5V29.333H45.7675C45.0985 15.8575 39.4138 5.33301 32.5 5.33301C25.5862 5.33301 19.9015 15.8575 19.2325 29.333H8.5V34.6663H19.2325C19.9015 48.1419 25.5862 58.6663 32.5 58.6663C39.4138 58.6663 45.0985 48.1419 45.7675 34.6663ZM40.427 34.6663C40.1188 40.2503 38.8619 45.0625 37.1578 48.4707C35.0284 52.7295 33.0735 53.333 32.5 53.333C31.9265 53.333 29.9716 52.7295 27.8422 48.4707C26.1381 45.0625 24.8812 40.2503 24.573 34.6663H40.427ZM24.573 29.333C24.8812 23.7491 26.1381 18.9368 27.8422 15.5286C29.9716 11.2699 31.9265 10.6663 32.5 10.6663C33.0735 10.6663 35.0284 11.2699 37.1578 15.5286C38.8619 18.9368 40.1188 23.7491 40.427 29.333H24.573Z" fill="#E93C3C"/>
<path fill-rule="evenodd" clip-rule="evenodd" d="M32.5 53.333C44.2821 53.333 53.8333 43.7817 53.8333 31.9997C53.8333 20.2176 44.2821 10.6663 32.5 10.6663C20.7179 10.6663 11.1667 20.2176 11.1667 31.9997C11.1667 43.7817 20.7179 53.333 32.5 53.333ZM32.5 58.6663C47.2276 58.6663 59.1667 46.7273 59.1667 31.9997C59.1667 17.2721 47.2276 5.33301 32.5 5.33301C17.7724 5.33301 5.83333 17.2721 5.83333 31.9997C5.83333 46.7273 17.7724 58.6663 32.5 58.6663Z" fill="#E93C3C"/>
</svg>
