<svg width="20" height="21" viewBox="0 0 20 21" fill="none" xmlns="http://www.w3.org/2000/svg">
<path d="M8.3335 11.3335C8.69138 11.8119 9.14796 12.2078 9.67229 12.4942C10.1966 12.7807 10.7764 12.9511 11.3724 12.9937C11.9683 13.0364 12.5665 12.9504 13.1263 12.7416C13.6861 12.5328 14.1944 12.206 14.6168 11.7835L17.1168 9.28347C17.8758 8.49762 18.2958 7.44511 18.2863 6.35263C18.2768 5.26014 17.8386 4.21509 17.0661 3.44256C16.2935 2.67002 15.2485 2.23182 14.156 2.22233C13.0635 2.21283 12.011 2.63281 11.2252 3.3918L9.79183 4.8168M11.6668 9.6668C11.309 9.18836 10.8524 8.79248 10.328 8.50602C9.80371 8.21955 9.22391 8.0492 8.62796 8.00652C8.032 7.96384 7.43384 8.04983 6.87405 8.25865C6.31425 8.46747 5.8059 8.79424 5.3835 9.2168L2.8835 11.7168C2.12451 12.5026 1.70453 13.5552 1.71402 14.6476C1.72352 15.7401 2.16172 16.7852 2.93426 17.5577C3.70679 18.3302 4.75184 18.7684 5.84433 18.7779C6.93681 18.7874 7.98932 18.3675 8.77517 17.6085L10.2002 16.1835" stroke="#767676" stroke-width="2" stroke-linecap="round" stroke-linejoin="round"/>
</svg>
