<svg width="45" height="44" viewBox="0 0 45 44" fill="none" xmlns="http://www.w3.org/2000/svg">
<rect x="0.726562" width="44" height="44" rx="22" fill="white" fill-opacity="0.1"/>
<path d="M21.7266 14.0002H14.7266C14.1961 14.0002 13.6874 14.2109 13.3123 14.586C12.9373 14.9611 12.7266 15.4698 12.7266 16.0002V30.0002C12.7266 30.5307 12.9373 31.0394 13.3123 31.4144C13.6874 31.7895 14.1961 32.0002 14.7266 32.0002H28.7266C29.257 32.0002 29.7657 31.7895 30.1408 31.4144C30.5158 31.0394 30.7266 30.5307 30.7266 30.0002V23.0002M29.2266 12.5002C29.6244 12.1024 30.164 11.8789 30.7266 11.8789C31.2892 11.8789 31.8287 12.1024 32.2266 12.5002C32.6244 12.8981 32.8479 13.4376 32.8479 14.0002C32.8479 14.5628 32.6244 15.1024 32.2266 15.5002L22.7266 25.0002L18.7266 26.0002L19.7266 22.0002L29.2266 12.5002Z" stroke="#767676" stroke-width="2" stroke-linecap="round" stroke-linejoin="round"/>
</svg>
