<svg width="30" height="30" viewBox="0 0 30 30" fill="none" xmlns="http://www.w3.org/2000/svg">
<path d="M5.34759 10.6122H8.96728C9.16059 11.3672 9.59969 12.0364 10.2154 12.5143C10.831 12.9921 11.5882 13.2515 12.3676 13.2515C13.147 13.2515 13.9042 12.9921 14.5198 12.5143C15.1355 12.0364 15.5746 11.3672 15.7679 10.6122H24.6526C24.8853 10.6122 25.1085 10.5197 25.2731 10.3551C25.4376 10.1906 25.5301 9.96738 25.5301 9.73466C25.5301 9.50193 25.4376 9.27873 25.2731 9.11417C25.1085 8.94961 24.8853 8.85716 24.6526 8.85716H15.7679C15.5746 8.10214 15.1355 7.43294 14.5198 6.95505C13.9042 6.47716 13.147 6.21777 12.3676 6.21777C11.5882 6.21777 10.831 6.47716 10.2154 6.95505C9.59969 7.43294 9.16059 8.10214 8.96728 8.85716H5.34759C5.11487 8.85716 4.89167 8.94961 4.72711 9.11417C4.56254 9.27873 4.47009 9.50193 4.47009 9.73466C4.47009 9.96738 4.56254 10.1906 4.72711 10.3551C4.89167 10.5197 5.11487 10.6122 5.34759 10.6122ZM12.3676 7.97966C12.7147 7.97966 13.054 8.08259 13.3426 8.27543C13.6312 8.46827 13.8562 8.74236 13.989 9.06305C14.1218 9.38373 14.1566 9.7366 14.0889 10.077C14.0212 10.4175 13.854 10.7302 13.6086 10.9756C13.3631 11.2211 13.0504 11.3882 12.71 11.4559C12.3695 11.5237 12.0167 11.4889 11.696 11.3561C11.3753 11.2232 11.1012 10.9983 10.9084 10.7097C10.7155 10.4211 10.6126 10.0818 10.6126 9.73466C10.6126 9.2692 10.7975 8.82281 11.1266 8.49368C11.4557 8.16456 11.9021 7.97966 12.3676 7.97966ZM24.6526 19.3872H22.7879C22.5946 18.6321 22.1555 17.9629 21.5398 17.4851C20.9242 17.0072 20.167 16.7478 19.3876 16.7478C18.6082 16.7478 17.851 17.0072 17.2354 17.4851C16.6197 17.9629 16.1806 18.6321 15.9873 19.3872H5.34759C5.11487 19.3872 4.89167 19.4796 4.72711 19.6442C4.56254 19.8087 4.47009 20.0319 4.47009 20.2647C4.47009 20.4974 4.56254 20.7206 4.72711 20.8851C4.89167 21.0497 5.11487 21.1422 5.34759 21.1422H15.9873C16.1806 21.8972 16.6197 22.5664 17.2354 23.0443C17.851 23.5221 18.6082 23.7815 19.3876 23.7815C20.167 23.7815 20.9242 23.5221 21.5398 23.0443C22.1555 22.5664 22.5946 21.8972 22.7879 21.1422H24.6526C24.8853 21.1422 25.1085 21.0497 25.2731 20.8851C25.4376 20.7206 25.5301 20.4974 25.5301 20.2647C25.5301 20.0319 25.4376 19.8087 25.2731 19.6442C25.1085 19.4796 24.8853 19.3872 24.6526 19.3872ZM19.3876 22.0197C19.0405 22.0197 18.7012 21.9167 18.4126 21.7239C18.124 21.531 17.899 21.257 17.7662 20.9363C17.6334 20.6156 17.5986 20.2627 17.6663 19.9223C17.734 19.5818 17.9012 19.2691 18.1466 19.0237C18.3921 18.7782 18.7048 18.6111 19.0452 18.5434C19.3856 18.4757 19.7385 18.5104 20.0592 18.6432C20.3799 18.7761 20.654 19.001 20.8468 19.2896C21.0397 19.5782 21.1426 19.9175 21.1426 20.2647C21.1426 20.7301 20.9577 21.1765 20.6286 21.5056C20.2994 21.8348 19.853 22.0197 19.3876 22.0197Z" fill="white" fill-opacity="0.8"/>
</svg>
