<svg width="16" height="16" viewBox="0 0 16 16" fill="none" xmlns="http://www.w3.org/2000/svg">
<path d="M2.66699 3.99935C2.66699 3.64573 2.80747 3.30659 3.05752 3.05654C3.30756 2.80649 3.6467 2.66602 4.00033 2.66602H12.0003C12.3539 2.66602 12.6931 2.80649 12.9431 3.05654C13.1932 3.30659 13.3337 3.64573 13.3337 3.99935V5.33268C13.3337 5.6863 13.1932 6.02544 12.9431 6.27549C12.6931 6.52554 12.3539 6.66602 12.0003 6.66602H4.00033C3.6467 6.66602 3.30756 6.52554 3.05752 6.27549C2.80747 6.02544 2.66699 5.6863 2.66699 5.33268V3.99935Z" stroke="#41CC5D" stroke-width="1.33333" stroke-linecap="round" stroke-linejoin="round"/>
<path d="M2.66699 10.666C2.66699 10.3124 2.80747 9.97326 3.05752 9.72321C3.30756 9.47316 3.6467 9.33268 4.00033 9.33268H12.0003C12.3539 9.33268 12.6931 9.47316 12.9431 9.72321C13.1932 9.97326 13.3337 10.3124 13.3337 10.666V11.9993C13.3337 12.353 13.1932 12.6921 12.9431 12.9422C12.6931 13.1922 12.3539 13.3327 12.0003 13.3327H4.00033C3.6467 13.3327 3.30756 13.1922 3.05752 12.9422C2.80747 12.6921 2.66699 12.353 2.66699 11.9993V10.666Z" stroke="#41CC5D" stroke-width="1.33333" stroke-linecap="round" stroke-linejoin="round"/>
</svg>
