<svg width="36" height="37" viewBox="0 0 36 37" fill="none" xmlns="http://www.w3.org/2000/svg">
<path d="M21 3.5H9C8.20435 3.5 7.44129 3.81607 6.87868 4.37868C6.31607 4.94129 6 5.70435 6 6.5V30.5C6 31.2957 6.31607 32.0587 6.87868 32.6213C7.44129 33.1839 8.20435 33.5 9 33.5H27C27.7956 33.5 28.5587 33.1839 29.1213 32.6213C29.6839 32.0587 30 31.2957 30 30.5V12.5M21 3.5L30 12.5M21 3.5V12.5H30M24 20H12M24 26H12M15 14H12" stroke="#00B877" stroke-width="1.8" stroke-linecap="round" stroke-linejoin="round"/>
</svg>
