<svg width="40" height="27" viewBox="0 0 40 27" fill="none" xmlns="http://www.w3.org/2000/svg">
<path d="M34.1618 11.2953C34.165 11.1977 34.1667 11.0992 34.1667 10.9999C34.1667 5.02662 29.3066 0.166595 23.3333 0.166595C19.3896 0.166595 15.7666 2.32887 13.8672 5.74521C13.0485 5.36516 12.1582 5.1666 11.25 5.1666C8.02409 5.1666 5.3597 7.62428 5.04232 10.8762C2.00521 12.1856 0 15.1829 0 18.4999C0 23.0947 3.73861 26.8333 8.33333 26.8333H32.0833C36.4486 26.8333 40 23.2818 40 18.9166C40 15.3139 37.5863 12.2198 34.1618 11.2953Z" fill="url(#paint0_linear_2177_61189)"/>
<path d="M34.1618 11.2953C34.165 11.1977 34.1667 11.0992 34.1667 10.9999C34.1667 5.02662 29.3066 0.166595 23.3333 0.166595C19.3896 0.166595 15.7666 2.32887 13.8672 5.74521C13.0485 5.36516 12.1582 5.1666 11.25 5.1666C8.02409 5.1666 5.3597 7.62428 5.04232 10.8762C2.00521 12.1856 0 15.1829 0 18.4999C0 23.0947 3.73861 26.8333 8.33333 26.8333H32.0833C36.4486 26.8333 40 23.2818 40 18.9166C40 15.3139 37.5863 12.2198 34.1618 11.2953Z" fill="url(#paint1_radial_2177_61189)"/>
<path d="M32.0837 26.8334C36.4559 26.8334 40.0003 23.289 40.0003 18.9167C40.0003 14.5444 36.4559 11 32.0837 11C27.7114 11 24.167 14.5444 24.167 18.9167C24.167 23.289 27.7114 26.8334 32.0837 26.8334Z" fill="url(#paint2_linear_2177_61189)"/>
<path d="M8.33333 26.8333C12.9357 26.8333 16.6667 23.1023 16.6667 18.4999C16.6667 13.8976 12.9357 10.1666 8.33333 10.1666C3.73096 10.1666 0 13.8976 0 18.4999C0 23.1023 3.73096 26.8333 8.33333 26.8333Z" fill="url(#paint3_linear_2177_61189)"/>
<path opacity="0.2" d="M11.25 17.6666C14.7018 17.6666 17.5 14.8684 17.5 11.4166C17.5 7.96482 14.7018 5.1666 11.25 5.1666C7.79822 5.1666 5 7.96482 5 11.4166C5 14.8684 7.79822 17.6666 11.25 17.6666Z" fill="#56C7DA"/>
<path d="M23.3333 21.8333C29.3164 21.8333 34.1667 16.983 34.1667 10.9999C34.1667 5.01684 29.3164 0.166595 23.3333 0.166595C17.3502 0.166595 12.5 5.01684 12.5 10.9999C12.5 16.983 17.3502 21.8333 23.3333 21.8333Z" fill="url(#paint4_linear_2177_61189)"/>
<path d="M34.1618 11.2953C34.165 11.1977 34.1667 11.0992 34.1667 10.9999C34.1667 5.02662 29.3066 0.166595 23.3333 0.166595C19.3896 0.166595 15.7666 2.32887 13.8672 5.74521C13.0485 5.36516 12.1582 5.1666 11.25 5.1666C8.02409 5.1666 5.3597 7.62428 5.04232 10.8762C2.00521 12.1856 0 15.1829 0 18.4999C0 23.0947 3.73861 26.8333 8.33333 26.8333H32.0833C36.4486 26.8333 40 23.2818 40 18.9166C40 15.3139 37.5863 12.2198 34.1618 11.2953Z" fill="url(#paint5_linear_2177_61189)"/>
<defs>
<linearGradient id="paint0_linear_2177_61189" x1="0" y1="13.4999" x2="40" y2="13.4999" gradientUnits="userSpaceOnUse">
<stop stop-color="#95DCF6"/>
<stop offset="1" stop-color="#507EFF"/>
</linearGradient>
<radialGradient id="paint1_radial_2177_61189" cx="0" cy="0" r="1" gradientUnits="userSpaceOnUse" gradientTransform="translate(20.5556 26.4166) scale(16.9967)">
<stop stop-color="#009ADA"/>
<stop offset="1" stop-color="#1E88E5" stop-opacity="0"/>
</radialGradient>
<linearGradient id="paint2_linear_2177_61189" x1="24.907" y1="15.5702" x2="39.2603" y2="22.2632" gradientUnits="userSpaceOnUse">
<stop stop-color="white" stop-opacity="0.06"/>
<stop offset="1" stop-color="white" stop-opacity="0"/>
</linearGradient>
<linearGradient id="paint3_linear_2177_61189" x1="14.3225" y1="14.4383" x2="2.23918" y2="22.6327" gradientUnits="userSpaceOnUse">
<stop stop-color="white" stop-opacity="0"/>
<stop offset="1" stop-color="white" stop-opacity="0.06"/>
</linearGradient>
<linearGradient id="paint4_linear_2177_61189" x1="23.3333" y1="0.166595" x2="23.3333" y2="21.8333" gradientUnits="userSpaceOnUse">
<stop stop-color="#00ACCD" stop-opacity="0.2"/>
<stop offset="0.127444" stop-color="#1AB4D2" stop-opacity="0.174511"/>
<stop offset="0.400106" stop-color="#5CCADF" stop-opacity="0.119979"/>
<stop offset="0.79292" stop-color="#C5ECF4" stop-opacity="0.041416"/>
<stop offset="1" stop-color="white" stop-opacity="0"/>
</linearGradient>
<linearGradient id="paint5_linear_2177_61189" x1="4.09506" y1="7.89712" x2="38.4797" y2="23.9309" gradientUnits="userSpaceOnUse">
<stop stop-color="white" stop-opacity="0.1"/>
<stop offset="1" stop-color="white" stop-opacity="0"/>
</linearGradient>
</defs>
</svg>
