<svg width="131" height="57" viewBox="0 0 131 57" fill="none" xmlns="http://www.w3.org/2000/svg">
<rect x="1.5" y="7.50037" width="51" height="17" rx="5.27778" fill="white" fill-opacity="0.1"/>
<rect x="1.5" y="7.50037" width="51" height="17" rx="5.27778" stroke="#00B877"/>
<circle cx="12" cy="16.0004" r="3" fill="#00B877"/>
<circle cx="22" cy="16.0004" r="3" fill="#00B877"/>
<circle cx="32" cy="16.0004" r="3" fill="#00B877"/>
<circle cx="42" cy="16.0004" r="3" fill="#00B877"/>
<rect x="38" y="12.0004" width="36.9484" height="36.9484" rx="18.4742" fill="#00B877"/>
<path d="M58.0138 22.7771H51.8557C51.4474 22.7771 51.0558 22.9393 50.7671 23.228C50.4784 23.5168 50.3162 23.9083 50.3162 24.3166V36.6328C50.3162 37.0411 50.4784 37.4327 50.7671 37.7214C51.0558 38.0101 51.4474 38.1723 51.8557 38.1723H61.0928C61.5011 38.1723 61.8927 38.0101 62.1814 37.7214C62.4701 37.4327 62.6323 37.0411 62.6323 36.6328V27.3957M58.0138 22.7771L62.6323 27.3957M58.0138 22.7771V27.3957H62.6323M59.5533 31.2445H53.3952M59.5533 34.3235H53.3952M54.9347 28.1654H53.3952" stroke="white" stroke-linecap="round" stroke-linejoin="round"/>
</svg>
