<svg width="131" height="57" viewBox="0 0 131 57" fill="none" xmlns="http://www.w3.org/2000/svg">
<rect x="1.5" y="7.50037" width="51" height="17" rx="5.27778" fill="white" fill-opacity="0.1"/>
<rect x="1.5" y="7.50037" width="51" height="17" rx="5.27778" stroke="white"/>
<circle cx="12" cy="16.0004" r="3" fill="#B3B3B3"/>
<circle cx="22" cy="16.0004" r="3" fill="#B3B3B3"/>
<circle cx="32" cy="16.0004" r="3" fill="#B3B3B3"/>
<circle cx="42" cy="16.0004" r="3" fill="#B3B3B3"/>
<rect x="38" y="12.0004" width="36.9484" height="36.9484" rx="18.4742" fill="#00EF8B"/>
<path d="M58.014 22.7771H51.8559C51.4476 22.7771 51.056 22.9393 50.7673 23.228C50.4786 23.5168 50.3164 23.9083 50.3164 24.3166V36.6328C50.3164 37.0411 50.4786 37.4327 50.7673 37.7214C51.056 38.0101 51.4476 38.1723 51.8559 38.1723H61.093C61.5013 38.1723 61.8929 38.0101 62.1816 37.7214C62.4703 37.4327 62.6325 37.0411 62.6325 36.6328V27.3957M58.014 22.7771L62.6325 27.3957M58.014 22.7771V27.3957H62.6325M59.5535 31.2445H53.3954M59.5535 34.3235H53.3954M54.935 28.1654H53.3954" stroke="black" stroke-linecap="round" stroke-linejoin="round"/>
</svg>
